<?xml version="1.0" encoding="utf-8"?>
<!-- Generator: Adobe Illustrator 16.0.0, SVG Export Plug-In . SVG Version: 6.00 Build 0)  -->
<!DOCTYPE svg PUBLIC "-//W3C//DTD SVG 1.1//EN" "http://www.w3.org/Graphics/SVG/1.1/DTD/svg11.dtd">
<svg version="1.1" xmlns="http://www.w3.org/2000/svg" xmlns:xlink="http://www.w3.org/1999/xlink" x="0px" y="0px" width="100px"
	 height="100px" viewBox="0 0 100 100" enable-background="new 0 0 100 100" xml:space="preserve">
<g id="Layer_1">
</g>
<g id="Layer_2">
</g>
<g id="Layer_3" display="none">
</g>
<g id="Layer_7">
</g>
<g id="Layer_4">
</g>
<g id="Layer_5">
</g>
<g id="Layer_10">
</g>
<g id="Layer_9">
</g>
<g id="Layer_11">
</g>
<g id="Layer_12">
</g>
<g id="Layer_13">
</g>
<g id="Layer_18">
</g>
<g id="Layer_14">
	<path fill="#CEFF00" stroke="#B9D800" stroke-miterlimit="10" d="M42.014,4.964C26.098,9.152,16.257,24.498,20.087,40.305
		c1.312,5.411,4.274,10.514,7.005,15.469C34.46,69.146,42.109,82.362,49.92,96.12c0.621-0.864,0.961-1.26,1.216-1.706
		c8.62-15.147,17.414-30.198,25.713-45.517c2.137-3.947,3.611-8.693,3.846-13.152C81.795,14.837,62.396-0.4,42.014,4.964z
		 M50,57.104c-12.851,0-23.27-10.418-23.27-23.27c0-12.851,10.419-23.27,23.27-23.27s23.27,10.418,23.27,23.27
		C73.27,46.685,62.851,57.104,50,57.104z"/>
</g>
<g id="Layer_21">
</g>
<g id="Layer_20">
</g>
<g id="Layer_16">
	<g>
		<path opacity="0.1" fill="#231F20" stroke="#231F20" stroke-miterlimit="10" d="M49.035,57.104
			c-12.456,0-22.545-10.418-22.545-23.27c0-12.851,10.084-23.27,22.54-23.27c0.162,0,0.47,0.009,0.47,0.013V3.895
			c-3-0.019-5.426,0.314-8.205,1.069C25.868,9.152,16.34,24.498,20.052,40.305c1.271,5.411,4.147,10.514,6.794,15.469
			C33.987,69.146,41.93,81.793,49.5,95.551c0.225-0.324,0,0,0-0.22v-38.24C49.5,57.094,49.197,57.104,49.035,57.104z"/>
	</g>
</g>
<g id="Layer_22">
</g>
<g id="Layer_23">
</g>
<g id="Layer_17">
	<g>
		<path fill="#038906" d="M36.994,34.537c-0.001-0.004,2.268,13.592,11.265,16.245c-0.099-0.037,8.571,3.417,14.803-0.73
			c-1.328-2.112-10.626-16.591-19.601-22.65c-0.254-0.171-0.506-0.326-0.758-0.484c-0.269-0.169-0.428-0.267-0.427-0.272
			c0.142,0.083,0.284,0.183,0.427,0.272c0.195,0.123,0.441,0.278,0.758,0.484c3.607,2.336,14.661,9.962,21.491,20.808l1.514-1.511
			c0,0,7.195-16.544-13.227-24.112c0.137,0.058-8.805-3.712-20.247-2.449L36.994,34.537z"/>
	</g>
	<g>
		<path fill="#038906" d="M47.946,17.718c-0.036-0.074-0.068-0.14-0.097-0.199c-0.045-0.093-0.086-0.191-0.141-0.269
			c0.013,0.013,0.065,0.115,0.141,0.269C47.882,17.585,47.918,17.645,47.946,17.718c0.415,0.858,1.244,2.65,1.509,3.224
			c1.769,0.448,3.64,1.052,4.832,1.806c-0.002-0.083-6.877-10.069-7.404-8.722c-0.747,1.909-2.09,5.979-2.09,5.979
			s1.559,0.225,3.484,0.656l0.39,0.131C48.666,20.792,48.378,18.851,47.946,17.718z"/>
	</g>
</g>
<g id="Layer_25">
</g>
<g id="Layer_24">
</g>
<g id="Layer_15">
</g>
<g id="Layer_8">
</g>
<g id="Layer_6">
</g>
<g id="Layer_19">
</g>
</svg>
