<?xml version="1.0" encoding="iso-8859-1"?>
<!-- Generator: Adobe Illustrator 16.0.0, SVG Export Plug-In . SVG Version: 6.00 Build 0)  -->
<!DOCTYPE svg PUBLIC "-//W3C//DTD SVG 1.1//EN" "http://www.w3.org/Graphics/SVG/1.1/DTD/svg11.dtd">
<svg version="1.1" id="Layer_1" xmlns="http://www.w3.org/2000/svg" xmlns:xlink="http://www.w3.org/1999/xlink" x="0px" y="0px"
	 width="408px" height="160px" viewBox="0 0 408 160" style="enable-background:new 0 0 408 160;" xml:space="preserve">
<g>
	<g>
		<path style="fill:#FFFFFF;" d="M73.021,71.801c1.652-2.521,5.303-5.215,11.128-5.215c11.823,0,14.605,7.563,14.605,15.126v21.734
			c0,2.609-2.087,4.52-4.694,4.52c-2.782,0-4.695-1.911-4.695-4.52V83.451c0-4.955-2-8.346-7.649-8.346
			c-6.521,0-8.694,3.825-8.694,8.955v19.386c0,2.609-2,4.52-4.693,4.52c-2.695,0-4.695-1.911-4.695-4.52V50.068
			c0-2.607,2.086-4.693,4.695-4.693c2.608,0,4.693,2.086,4.693,4.693V71.801z"/>
		<path style="fill:#FFFFFF;" d="M124.048,66.586c14.692,0,17.386,11.301,17.386,17.3c0,3.217,0,6.954-5.303,6.954h-21.473
			c0,6.259,4.434,9.128,10.172,9.128c3.824,0,6.52-1.305,8.606-2.695c0.956-0.609,1.652-0.956,2.782-0.956
			c2.26,0,4.085,1.825,4.085,4.085c0,1.391-0.695,2.521-1.478,3.217c-1.478,1.391-6.085,4.781-13.996,4.781
			c-12.084,0-19.561-6.52-19.561-21.039C105.27,74.062,112.224,66.586,124.048,66.586z M114.919,83.016h17.213
			c0-4.259-2.435-8.433-8.084-8.433C119.005,74.583,115.354,77.453,114.919,83.016z"/>
		<path style="fill:#FFFFFF;" d="M157.773,50.068v47.64c0,1.042,1.043,1.565,1.652,1.565c2.435,0,4.346,1.912,4.346,4.347
			c0,2.435-1.911,4.346-4.346,4.346c-6.781,0-11.041-3.825-11.041-11.127V50.068c0-2.607,2.086-4.693,4.694-4.693
			C155.686,45.375,157.773,47.46,157.773,50.068z"/>
		<path style="fill:#FFFFFF;" d="M189.154,66.586c11.388,0,17.647,6.694,17.647,20.864s-6.347,20.951-17.647,20.951
			c-4.347,0-8.172-1.391-10.258-3.739v15.387c0,2.608-2.087,4.694-4.695,4.694c-2.607,0-4.694-2.086-4.694-4.694V71.801
			c0-2.608,2.087-4.693,4.694-4.693c2.608,0,4.695,2.085,4.695,4.693C180.2,69.628,184.286,66.586,189.154,66.586z M187.937,74.583
			c-6.084,0-9.301,4.347-9.301,12.953c0,8.521,3.217,12.867,9.301,12.867c6.086,0,9.302-4.346,9.302-12.867
			C197.238,78.93,194.022,74.583,187.937,74.583z"/>
		<path style="fill:#FFFFFF;" d="M222.62,78.061c0,6.433,21.386,3.478,21.386,17.822c0,8.17-6.956,12.344-15.91,12.344
			c-7.476,0-13.213-3.39-15.387-6.085c-0.695-0.869-1.043-1.651-1.043-2.695c0-2.26,1.912-4.173,4.172-4.173
			c0.87,0,1.739,0.26,2.696,1.043c2.347,1.913,5.216,3.563,9.562,3.563c3.913,0,6.434-1.042,6.434-3.477
			c0-7.041-21.298-3.39-21.298-18.168c0-7.824,6.52-11.649,14.517-11.649c6.174,0,11.649,2.347,14.084,5.39
			c0.521,0.696,0.869,1.304,0.869,2.607c0,2.261-1.911,4.174-4.172,4.174c-1.218,0-1.999-0.522-2.956-1.218
			c-1.914-1.391-4.26-2.782-7.825-2.782C224.531,74.757,222.62,75.887,222.62,78.061z"/>
		<path style="fill:#FFFFFF;" d="M253.737,60.5c0-2.521,2.086-4.608,4.608-4.608c2.521,0,4.608,2.087,4.608,4.608v7.302h3.91
			c2.174,0,3.913,1.738,3.913,3.912c0,2.173-1.739,3.912-3.913,3.912h-3.91v21.038c0,1.999,1.737,3.129,3.302,3.129
			c2.262,0,4.085,1.827,4.085,4.087c0,2.26-1.823,4.085-4.085,4.085c-7.736,0-12.519-4.955-12.519-11.823V75.627h-1.999
			c-2.174,0-3.913-1.739-3.913-3.912c0-2.174,1.739-3.912,3.913-3.912h1.999V60.5z"/>
		<path style="fill:#FFFFFF;" d="M294.333,66.586c14.692,0,17.387,11.301,17.387,17.3c0,3.217,0,6.954-5.303,6.954h-21.472
			c0,6.259,4.434,9.128,10.17,9.128c3.824,0,6.521-1.305,8.606-2.695c0.956-0.609,1.653-0.956,2.783-0.956
			c2.26,0,4.085,1.825,4.085,4.085c0,1.391-0.695,2.521-1.479,3.217c-1.477,1.391-6.085,4.781-13.996,4.781
			c-12.083,0-19.561-6.52-19.561-21.039C275.555,74.062,282.511,66.586,294.333,66.586z M285.205,83.016h17.213
			c0-4.259-2.435-8.433-8.085-8.433C289.291,74.583,285.641,77.453,285.205,83.016z"/>
		<path style="fill:#FFFFFF;" d="M327.625,72.236c1.651-3.39,5.738-5.564,9.389-5.564c2.435,0,4.434,2,4.434,4.434
			c0,2.434-1.999,4.434-4.434,4.434c-5.999,0-9.389,3.825-9.389,9.65v18.082c0,2.608-2.086,4.694-4.694,4.694
			s-4.694-2.085-4.694-4.694V71.801c0-2.608,2.086-4.693,4.694-4.693s4.694,2.085,4.694,4.693V72.236z"/>
	</g>
	<path style="fill:#FFFFFF;" d="M394.081,152.479H13.069c-2.209,0-4-1.791-4-4V14.301c0-2.209,1.791-4,4-4h381.012
		c2.209,0,4,1.791,4,4v134.178C398.081,150.688,396.29,152.479,394.081,152.479z M17.069,144.479h373.012V18.301H17.069V144.479z"/>
</g>
</svg>
